<?xml version="1.0" encoding="UTF-8" standalone="no"?>
<!DOCTYPE svg PUBLIC "-//W3C//DTD SVG 1.1//EN" "http://www.w3.org/Graphics/SVG/1.1/DTD/svg11.dtd">
<svg width="100%" height="100%" viewBox="0 0 1024 300" version="1.1" xmlns="http://www.w3.org/2000/svg" xmlns:xlink="http://www.w3.org/1999/xlink" xml:space="preserve" xmlns:serif="http://www.serif.com/" style="fill-rule:evenodd;clip-rule:evenodd;stroke-linejoin:round;stroke-miterlimit:2;">
    <g transform="matrix(1.13009,0,0,1.13009,-7.92425,-87.4606)">
        <g transform="matrix(144,0,0,144,16.2673,259.086)">
            <path d="M0.04,-0.68L0.532,-0.68L0.532,-0.543L0.235,-0.543L0.235,-0.407L0.452,-0.407L0.452,-0.275L0.235,-0.275L0.235,-0.137L0.539,-0.137L0.539,-0L0.04,-0L0.04,-0.68Z" style="fill-rule:nonzero;"/>
        </g>
        <g transform="matrix(144,0,0,144,96.4753,259.086)">
            <rect x="0.031" y="-0.164" width="0.158" height="0.164" style="fill-rule:nonzero;"/>
        </g>
        <g transform="matrix(144,0,0,144,129.595,259.086)">
            <path d="M0.147,0.01C0.122,0.01 0.097,0.008 0.072,0.004C0.047,0 0.026,-0.005 0.01,-0.011L0.037,-0.149C0.049,-0.145 0.061,-0.142 0.072,-0.139C0.083,-0.136 0.095,-0.135 0.106,-0.135C0.129,-0.135 0.146,-0.143 0.157,-0.159C0.168,-0.175 0.174,-0.2 0.174,-0.235L0.174,-0.68L0.369,-0.68L0.369,-0.231C0.369,-0.15 0.35,-0.089 0.313,-0.049C0.276,-0.01 0.22,0.01 0.147,0.01Z" style="fill-rule:nonzero;"/>
        </g>
        <g transform="matrix(144,0,0,144,186.763,259.086)">
            <rect x="0.031" y="-0.164" width="0.158" height="0.164" style="fill-rule:nonzero;"/>
        </g>
        <g transform="matrix(144,0,0,144,218.443,259.086)">
        </g>
        <g transform="matrix(144,0,0,144,240.043,259.086)">
            <path d="M0.04,-0.68L0.235,-0.68L0.235,-0.415L0.439,-0.415L0.439,-0.68L0.634,-0.68L0.634,-0L0.439,-0L0.439,-0.273L0.235,-0.273L0.235,-0L0.04,-0L0.04,-0.68Z" style="fill-rule:nonzero;"/>
        </g>
        <g transform="matrix(144,0,0,144,337.099,259.086)">
            <path d="M0.237,-0.68L0.424,-0.68L0.656,-0L0.457,-0L0.276,-0.584L0.347,-0.584L0.166,-0L0.005,-0L0.237,-0.68ZM0.148,-0.279L0.517,-0.279L0.517,-0.143L0.148,-0.143L0.148,-0.279Z" style="fill-rule:nonzero;"/>
        </g>
        <g transform="matrix(144,0,0,144,432.283,259.086)">
            <path d="M0.04,-0.68L0.235,-0.68L0.235,-0.145L0.509,-0.145L0.509,-0L0.04,-0L0.04,-0.68Z" style="fill-rule:nonzero;"/>
        </g>
        <g transform="matrix(144,0,0,144,507.739,259.086)">
            <path d="M0.04,-0.68L0.235,-0.68L0.235,-0.145L0.509,-0.145L0.509,-0L0.04,-0L0.04,-0.68Z" style="fill-rule:nonzero;"/>
        </g>
        <g transform="matrix(144,0,0,144,581.035,259.086)">
            <path d="M0.356,0.01C0.291,0.01 0.233,-0.003 0.182,-0.03C0.131,-0.057 0.092,-0.096 0.063,-0.149C0.034,-0.202 0.02,-0.265 0.02,-0.34C0.02,-0.415 0.034,-0.478 0.063,-0.531C0.092,-0.584 0.131,-0.623 0.182,-0.65C0.233,-0.677 0.291,-0.69 0.356,-0.69C0.421,-0.69 0.479,-0.677 0.53,-0.65C0.581,-0.623 0.62,-0.584 0.649,-0.531C0.678,-0.478 0.692,-0.415 0.692,-0.34C0.692,-0.265 0.678,-0.202 0.649,-0.149C0.62,-0.096 0.581,-0.057 0.53,-0.03C0.479,-0.003 0.421,0.01 0.356,0.01ZM0.356,-0.116C0.385,-0.116 0.41,-0.125 0.429,-0.143C0.448,-0.162 0.463,-0.188 0.472,-0.221C0.481,-0.254 0.486,-0.294 0.486,-0.34C0.486,-0.386 0.481,-0.426 0.472,-0.459C0.463,-0.492 0.448,-0.518 0.429,-0.536C0.41,-0.555 0.385,-0.564 0.356,-0.564C0.327,-0.564 0.302,-0.555 0.283,-0.536C0.264,-0.518 0.249,-0.492 0.24,-0.459C0.231,-0.426 0.226,-0.386 0.226,-0.34C0.226,-0.294 0.231,-0.254 0.24,-0.221C0.249,-0.188 0.264,-0.162 0.283,-0.143C0.302,-0.125 0.327,-0.116 0.356,-0.116Z" style="fill-rule:nonzero;"/>
        </g>
        <g transform="matrix(144,0,0,144,680.683,259.086)">
            <path d="M0.009,-0.68L0.206,-0.68L0.351,-0.078L0.259,-0.078L0.395,-0.68L0.591,-0.68L0.727,-0.078L0.635,-0.078L0.78,-0.68L0.939,-0.68L0.757,-0L0.571,-0L0.437,-0.589L0.511,-0.589L0.377,-0L0.191,-0L0.009,-0.68Z" style="fill-rule:nonzero;"/>
        </g>
        <g transform="matrix(144,0,0,144,814.315,259.086)">
            <path d="M0.301,0.01C0.228,0.01 0.168,-0.004 0.119,-0.032C0.07,-0.06 0.037,-0.099 0.02,-0.149L0.174,-0.191C0.185,-0.165 0.202,-0.145 0.224,-0.131C0.246,-0.118 0.273,-0.111 0.306,-0.111C0.327,-0.111 0.344,-0.114 0.358,-0.119C0.373,-0.124 0.384,-0.132 0.391,-0.141C0.398,-0.151 0.402,-0.162 0.402,-0.175C0.402,-0.195 0.393,-0.21 0.376,-0.221C0.359,-0.232 0.327,-0.243 0.28,-0.252C0.225,-0.263 0.179,-0.278 0.143,-0.297C0.108,-0.316 0.081,-0.341 0.063,-0.371C0.045,-0.402 0.036,-0.439 0.036,-0.482C0.036,-0.524 0.047,-0.561 0.07,-0.592C0.093,-0.623 0.125,-0.647 0.166,-0.664C0.207,-0.681 0.253,-0.69 0.304,-0.69C0.37,-0.69 0.425,-0.677 0.47,-0.65C0.515,-0.624 0.547,-0.587 0.567,-0.539L0.414,-0.497C0.391,-0.545 0.353,-0.569 0.299,-0.569C0.274,-0.569 0.254,-0.563 0.238,-0.552C0.222,-0.541 0.214,-0.526 0.214,-0.509C0.214,-0.496 0.218,-0.485 0.227,-0.476C0.236,-0.468 0.249,-0.461 0.268,-0.454C0.287,-0.448 0.315,-0.44 0.352,-0.431C0.405,-0.418 0.449,-0.401 0.482,-0.382C0.515,-0.363 0.54,-0.339 0.557,-0.31C0.574,-0.281 0.582,-0.245 0.582,-0.202C0.582,-0.159 0.57,-0.121 0.547,-0.089C0.524,-0.057 0.491,-0.032 0.448,-0.015C0.406,0.002 0.357,0.01 0.301,0.01Z" style="fill-rule:nonzero;"/>
        </g>
        <g transform="matrix(144,0,0,144,901.003,259.086)">
        </g>
    </g>
</svg>
